# xmcd CD database file
#
# Track frame offsets:
#	150
#	3642
#	25430
#	118905
#	149710
#	177635
#	182810
#	268722
#	284595
#	293785
#
# Disc length: 4325 seconds
#
# Revision: 0
# Processed by: cddbd v1.5.2PL0 Copyright (c) Steve Scherf et al.
# Submitted via: CDex 1.70beta2
#
DISCID=a910e30a
DTITLE=Steuart Liebig - Quartetto Stig: Hommages Obliques
DYEAR=1993
DGENRE=Jazz
TTITLE0=Drei Schreckliche Engel
TTITLE1=Generator
TTITLE2=Commedia
TTITLE3=In Her Image
TTITLE4=Orpheus
TTITLE5=Squib
TTITLE6=Hojo No Umi
TTITLE7=Tradition
TTITLE8=Horseness Is The Whatness Of Allhorse
TTITLE9=Seal
EXTD=YEAR: 1993
EXTT0=
EXTT1=
EXTT2=
EXTT3=
EXTT4=
EXTT5=
EXTT6=
EXTT7=
EXTT8=
EXTT9=
PLAYORDER=
